<svg width="1440" height="1024" viewBox="0 0 1440 1024" fill="none" xmlns="http://www.w3.org/2000/svg">
<rect width="1440" height="1024" fill="white"/>
<rect x="436.5" y="462.5" width="566" height="185" rx="19.5" fill="white" stroke="#686868"/>
<rect x="464.5" y="529.5" width="510" height="71" rx="9.5" fill="white" stroke="#BABABA"/>
<path d="M491.369 564.236H489.553V563.012H491.369V564.236ZM488.434 562.168C488.434 563 488.348 563.791 488.176 564.541C488.008 565.291 487.744 565.961 487.385 566.551C487.029 567.141 486.578 567.604 486.031 567.939L485.117 566.826C485.621 566.514 486.035 566.111 486.359 565.619C486.684 565.123 486.918 564.584 487.062 564.002C487.211 563.42 487.285 562.809 487.285 562.168V560.328H488.434V562.168ZM488.732 562.098C488.732 562.727 488.795 563.316 488.92 563.867C489.045 564.414 489.252 564.922 489.541 565.391C489.834 565.859 490.211 566.244 490.672 566.545L489.863 567.693C489.32 567.365 488.883 566.912 488.551 566.334C488.219 565.756 487.979 565.113 487.83 564.406C487.686 563.699 487.613 562.93 487.613 562.098V560.328H488.732V562.098ZM494.562 570.078H493.127V559.402H494.562V570.078ZM492.33 569.586H490.93V559.566H492.33V569.586ZM502.109 561.822C502.109 562.725 502 563.574 501.781 564.371C501.562 565.168 501.232 565.873 500.791 566.486C500.35 567.1 499.803 567.566 499.15 567.887L498.23 566.674C498.82 566.404 499.312 566.018 499.707 565.514C500.105 565.006 500.402 564.436 500.598 563.803C500.797 563.17 500.896 562.51 500.896 561.822V560.229H502.109V561.822ZM502.385 561.822C502.385 562.486 502.479 563.121 502.666 563.727C502.854 564.332 503.137 564.877 503.516 565.361C503.898 565.846 504.363 566.223 504.91 566.492L504.008 567.682C503.383 567.365 502.859 566.912 502.438 566.322C502.016 565.732 501.703 565.055 501.5 564.289C501.297 563.523 501.195 562.701 501.195 561.822V560.229H502.385V561.822ZM506.879 570.078H505.379V559.402H506.879V570.078ZM508.461 564.793H506.551V563.521H508.461V564.793ZM517.297 565.754H515.803V559.426H517.297V565.754ZM518.75 563.188H516.852V561.951H518.75V563.188ZM517.297 569.961H510.307V566.205H517.297V569.961ZM511.783 568.76H515.832V567.365H511.783V568.76ZM510.119 564.143C511.264 564.143 512.191 564.125 512.902 564.09C513.613 564.051 514.32 563.971 515.023 563.85L515.182 565.016C514.463 565.152 513.732 565.246 512.99 565.297C512.252 565.344 511.295 565.367 510.119 565.367H509.223V564.143H510.119ZM514.115 563.188H510.717V564.828H509.223V562.068H512.656V561.137H509.205V559.941H514.115V563.188ZM528.137 570.107H526.619V559.402H528.137V570.107ZM522.342 560.158C522.877 560.158 523.357 560.314 523.783 560.627C524.213 560.939 524.547 561.383 524.785 561.957C525.027 562.531 525.148 563.199 525.148 563.961C525.148 564.727 525.027 565.396 524.785 565.971C524.547 566.545 524.213 566.988 523.783 567.301C523.357 567.609 522.877 567.764 522.342 567.764C521.799 567.764 521.312 567.609 520.883 567.301C520.457 566.988 520.123 566.545 519.881 565.971C519.639 565.396 519.518 564.727 519.518 563.961C519.518 563.199 519.639 562.531 519.881 561.957C520.123 561.383 520.457 560.939 520.883 560.627C521.312 560.314 521.799 560.158 522.342 560.158ZM522.342 561.512C522.068 561.508 521.826 561.602 521.615 561.793C521.408 561.98 521.248 562.26 521.135 562.631C521.025 562.998 520.971 563.441 520.971 563.961C520.971 564.48 521.025 564.924 521.135 565.291C521.248 565.658 521.408 565.938 521.615 566.129C521.826 566.316 522.068 566.41 522.342 566.41C522.611 566.41 522.85 566.316 523.057 566.129C523.264 565.938 523.424 565.658 523.537 565.291C523.65 564.924 523.707 564.48 523.707 563.961C523.707 563.441 523.65 562.998 523.537 562.631C523.424 562.26 523.264 561.98 523.057 561.793C522.854 561.602 522.615 561.508 522.342 561.512ZM542.1 566.592H532.35V565.373H542.1V566.592ZM537.934 570.09H536.451V566.146H537.934V570.09ZM537.195 559.766C537.957 559.766 538.631 559.865 539.217 560.064C539.807 560.26 540.264 560.541 540.588 560.908C540.916 561.271 541.08 561.699 541.08 562.191C541.08 562.664 540.916 563.08 540.588 563.439C540.264 563.799 539.807 564.076 539.217 564.271C538.631 564.467 537.957 564.564 537.195 564.564C536.438 564.564 535.764 564.467 535.174 564.271C534.588 564.076 534.133 563.799 533.809 563.439C533.484 563.08 533.322 562.664 533.322 562.191C533.322 561.699 533.484 561.271 533.809 560.908C534.133 560.541 534.588 560.26 535.174 560.064C535.764 559.865 536.438 559.766 537.195 559.766ZM537.195 560.961C536.719 560.961 536.305 561.008 535.953 561.102C535.602 561.195 535.332 561.336 535.145 561.523C534.961 561.707 534.869 561.93 534.869 562.191C534.869 562.441 534.961 562.656 535.145 562.836C535.332 563.016 535.602 563.152 535.953 563.246C536.305 563.336 536.719 563.383 537.195 563.387C537.68 563.383 538.098 563.336 538.449 563.246C538.801 563.152 539.07 563.016 539.258 562.836C539.445 562.656 539.539 562.441 539.539 562.191C539.539 561.93 539.445 561.707 539.258 561.523C539.07 561.336 538.799 561.195 538.443 561.102C538.092 561.008 537.676 560.961 537.195 560.961ZM548.029 560.92C548.029 561.549 547.857 562.125 547.514 562.648C547.174 563.172 546.684 563.611 546.043 563.967C545.402 564.318 544.641 564.555 543.758 564.676L543.201 563.51C543.947 563.416 544.586 563.236 545.117 562.971C545.652 562.705 546.055 562.393 546.324 562.033C546.594 561.674 546.729 561.303 546.729 560.92V560.598H548.029V560.92ZM548.457 560.92C548.457 561.303 548.59 561.674 548.855 562.033C549.125 562.393 549.527 562.705 550.062 562.971C550.598 563.236 551.242 563.416 551.996 563.51L551.457 564.676C550.57 564.555 549.803 564.318 549.154 563.967C548.51 563.615 548.016 563.178 547.672 562.654C547.328 562.127 547.156 561.549 547.156 560.92V560.598H548.457V560.92ZM548.305 570.084H546.822V566.152H548.305V570.084ZM552.459 566.492H542.732V565.303H552.459V566.492ZM551.58 561.143H543.605V559.977H551.58V561.143ZM561.102 562.9H558.594V561.688H561.102V562.9ZM556.789 561.23C556.789 561.973 556.68 562.658 556.461 563.287C556.242 563.912 555.912 564.459 555.471 564.928C555.033 565.393 554.488 565.744 553.836 565.982L553.027 564.799C553.602 564.607 554.078 564.33 554.457 563.967C554.84 563.604 555.123 563.189 555.307 562.725C555.49 562.26 555.582 561.762 555.582 561.23V560.07H556.789V561.23ZM557.088 561.242C557.088 561.723 557.176 562.18 557.352 562.613C557.527 563.043 557.797 563.43 558.16 563.773C558.527 564.113 558.984 564.377 559.531 564.564L558.717 565.725C558.1 565.49 557.58 565.152 557.158 564.711C556.74 564.266 556.426 563.748 556.215 563.158C556.004 562.568 555.898 561.93 555.898 561.242V560.07H557.088V561.242ZM562.086 567.301H560.598V559.426H562.086V567.301ZM562.314 569.896H554.984V568.689H562.314V569.896ZM556.496 569.346H554.984V566.475H556.496V569.346ZM569.557 564.553H567.775V563.357H569.557V564.553ZM572.715 570.078H571.279V559.402H572.715V570.078ZM570.494 569.586H569.082V559.566H570.494V569.586ZM565.883 560.17C566.355 560.17 566.77 560.326 567.125 560.639C567.48 560.947 567.754 561.393 567.945 561.975C568.141 562.557 568.238 563.242 568.238 564.031C568.238 564.816 568.141 565.502 567.945 566.088C567.754 566.67 567.48 567.119 567.125 567.436C566.77 567.748 566.355 567.906 565.883 567.91C565.414 567.906 565.004 567.748 564.652 567.436C564.301 567.119 564.029 566.67 563.838 566.088C563.65 565.502 563.557 564.816 563.557 564.031C563.557 563.238 563.65 562.553 563.838 561.975C564.029 561.393 564.301 560.947 564.652 560.639C565.008 560.326 565.418 560.17 565.883 560.17ZM565.883 561.588C565.68 561.584 565.508 561.674 565.367 561.857C565.227 562.041 565.119 562.314 565.045 562.678C564.975 563.041 564.939 563.492 564.939 564.031C564.939 564.566 564.975 565.018 565.045 565.385C565.119 565.752 565.227 566.025 565.367 566.205C565.512 566.385 565.684 566.475 565.883 566.475C566.09 566.475 566.266 566.385 566.41 566.205C566.555 566.025 566.666 565.752 566.744 565.385C566.822 565.018 566.861 564.566 566.861 564.031C566.861 563.492 566.822 563.041 566.744 562.678C566.666 562.314 566.555 562.041 566.41 561.857C566.266 561.674 566.09 561.584 565.883 561.588ZM582.107 563.973H579.266V562.771H582.107V563.973ZM577.572 561.822C577.572 562.736 577.465 563.594 577.25 564.395C577.035 565.195 576.707 565.904 576.266 566.521C575.824 567.139 575.277 567.611 574.625 567.939L573.688 566.715C574.273 566.449 574.766 566.062 575.164 565.555C575.566 565.047 575.865 564.473 576.061 563.832C576.26 563.191 576.359 562.521 576.359 561.822V560.229H577.572V561.822ZM577.877 561.822C577.877 562.521 577.971 563.182 578.158 563.803C578.346 564.42 578.633 564.969 579.02 565.449C579.406 565.93 579.887 566.297 580.461 566.551L579.547 567.746C578.906 567.43 578.371 566.979 577.941 566.393C577.516 565.803 577.197 565.121 576.986 564.348C576.779 563.574 576.676 562.732 576.676 561.822V560.229H577.877V561.822ZM582.84 570.107H581.357V559.402H582.84V570.107ZM596.457 570.066H595.021V559.402H596.457V570.066ZM595.596 564.676H593.668V563.463H595.596V564.676ZM589.631 560.662C589.631 561.611 589.586 562.477 589.496 563.258C589.406 564.035 589.24 564.787 588.998 565.514C588.76 566.24 588.422 566.93 587.984 567.582L586.812 566.914C587.223 566.312 587.541 565.707 587.768 565.098C587.998 564.484 588.158 563.836 588.248 563.152C588.338 562.469 588.383 561.678 588.383 560.779V560.662H589.631ZM589.15 561.852H587.193V560.662H589.15V561.852ZM592.162 560.662C592.162 561.689 592.121 562.625 592.039 563.469C591.957 564.309 591.795 565.133 591.553 565.941C591.314 566.746 590.967 567.5 590.51 568.203L589.32 567.57C589.762 566.914 590.094 566.238 590.316 565.543C590.543 564.844 590.693 564.125 590.768 563.387C590.842 562.645 590.879 561.775 590.879 560.779V560.662H592.162ZM591.688 561.852H589.947V560.662H591.688V561.852ZM594.184 569.604H592.789V559.596H594.184V569.604ZM600.301 560.158C600.832 560.158 601.307 560.314 601.725 560.627C602.143 560.939 602.469 561.383 602.703 561.957C602.941 562.531 603.061 563.199 603.061 563.961C603.061 564.727 602.941 565.396 602.703 565.971C602.469 566.545 602.143 566.988 601.725 567.301C601.307 567.609 600.832 567.764 600.301 567.764C599.766 567.764 599.287 567.609 598.865 567.301C598.447 566.992 598.119 566.551 597.881 565.977C597.643 565.398 597.523 564.727 597.523 563.961C597.523 563.199 597.643 562.531 597.881 561.957C598.119 561.383 598.447 560.939 598.865 560.627C599.287 560.314 599.766 560.158 600.301 560.158ZM600.301 561.512C600.035 561.508 599.799 561.602 599.592 561.793C599.389 561.984 599.232 562.264 599.123 562.631C599.018 562.998 598.965 563.441 598.965 563.961C598.965 564.48 599.018 564.924 599.123 565.291C599.232 565.658 599.389 565.938 599.592 566.129C599.799 566.316 600.035 566.41 600.301 566.41C600.57 566.41 600.807 566.316 601.01 566.129C601.213 565.938 601.369 565.658 601.479 565.291C601.588 564.924 601.643 564.48 601.643 563.961C601.643 563.438 601.586 562.992 601.473 562.625C601.363 562.258 601.209 561.98 601.01 561.793C600.811 561.602 600.574 561.508 600.301 561.512ZM606.359 570.107H604.877V559.402H606.359V570.107ZM605.516 564.465H602.615V563.264H605.516V564.465ZM617.65 564.676H615.758V563.451H617.65V564.676ZM616.145 570.061H614.645V559.402H616.145V570.061ZM609.564 567.055H608.07V560.428H609.564V567.055ZM608.996 566.223C609.816 566.223 610.635 566.186 611.451 566.111C612.271 566.037 613.096 565.918 613.924 565.754L614.088 566.996C613.256 567.164 612.42 567.283 611.58 567.354C610.744 567.42 609.883 567.453 608.996 567.453H608.07V566.223H608.996ZM619.338 571.473H618.096L618.676 568.139H620.352L619.338 571.473ZM629.316 561.781H624.641V560.586H629.316V561.781ZM627.512 567.201H626.035V563.85H627.512V567.201ZM630.23 561.371C630.223 561.883 630.215 562.299 630.207 562.619C630.199 562.939 630.178 563.332 630.143 563.797C630.107 564.262 630.047 564.76 629.961 565.291L628.49 565.15C628.572 564.643 628.633 564.164 628.672 563.715C628.711 563.262 628.734 562.875 628.742 562.555C628.75 562.234 628.756 561.84 628.76 561.371V560.586H630.23V561.371ZM633.014 570.107H631.525V559.402H633.014V570.107ZM623.938 566.768C625.32 566.768 626.574 566.748 627.699 566.709C628.824 566.67 629.896 566.588 630.916 566.463L631.045 567.559C629.971 567.73 628.863 567.848 627.723 567.91C626.582 567.969 625.383 567.998 624.125 567.998L623.938 566.768ZM639.904 566.023H638.404V564.523H639.904V566.023ZM644.041 564.828H634.314V563.65H644.041V564.828ZM642.805 563.088H635.51V559.725H642.805V563.088ZM636.98 561.928H641.311V560.885H636.98V561.928ZM642.852 568.244H636.91V569.223H635.439V567.189H641.375V566.633H635.434V565.508H642.852V568.244ZM643.133 570.002H635.439V568.883H643.133V570.002ZM649.777 561.676H645.148V560.48H649.777V561.676ZM648.02 567.154H646.549V563.533H648.02V567.154ZM650.674 561.33C650.67 561.834 650.664 562.264 650.656 562.619C650.648 562.971 650.623 563.391 650.58 563.879C650.537 564.363 650.473 564.879 650.387 565.426L648.916 565.303C649.033 564.537 649.107 563.861 649.139 563.275C649.17 562.686 649.186 562.037 649.186 561.33V560.48H650.674V561.33ZM653.123 570.078H651.617V559.402H653.123V570.078ZM654.57 564.945H652.678V563.697H654.57V564.945ZM644.586 566.709C645.934 566.697 647.123 566.672 648.154 566.633C649.189 566.59 650.176 566.51 651.113 566.393L651.201 567.5C650.217 567.664 649.184 567.773 648.102 567.828C647.023 567.883 645.9 567.906 644.732 567.898L644.586 566.709ZM665.785 562.777H662.996V561.564H665.785V562.777ZM666.811 564.863H665.328V559.402H666.811V564.863ZM666.811 568.127H661.232V569.469H659.727V567.049H665.328V566.434H659.715V565.262H666.811V568.127ZM667.127 569.961H659.727V568.783H667.127V569.961ZM659.785 561.096H661.883V559.865H663.365V564.576H658.279V559.865H659.785V561.096ZM661.883 563.398V562.244H659.785V563.398H661.883ZM677.129 570.107H675.611V559.402H677.129V570.107ZM671.334 560.158C671.869 560.158 672.35 560.314 672.775 560.627C673.205 560.939 673.539 561.383 673.777 561.957C674.02 562.531 674.141 563.199 674.141 563.961C674.141 564.727 674.02 565.396 673.777 565.971C673.539 566.545 673.205 566.988 672.775 567.301C672.35 567.609 671.869 567.764 671.334 567.764C670.791 567.764 670.305 567.609 669.875 567.301C669.449 566.988 669.115 566.545 668.873 565.971C668.631 565.396 668.51 564.727 668.51 563.961C668.51 563.199 668.631 562.531 668.873 561.957C669.115 561.383 669.449 560.939 669.875 560.627C670.305 560.314 670.791 560.158 671.334 560.158ZM671.334 561.512C671.061 561.508 670.818 561.602 670.607 561.793C670.4 561.98 670.24 562.26 670.127 562.631C670.018 562.998 669.963 563.441 669.963 563.961C669.963 564.48 670.018 564.924 670.127 565.291C670.24 565.658 670.4 565.938 670.607 566.129C670.818 566.316 671.061 566.41 671.334 566.41C671.604 566.41 671.842 566.316 672.049 566.129C672.256 565.938 672.416 565.658 672.529 565.291C672.643 564.924 672.699 564.48 672.699 563.961C672.699 563.441 672.643 562.998 672.529 562.631C672.416 562.26 672.256 561.98 672.049 561.793C671.846 561.602 671.607 561.508 671.334 561.512ZM687.236 563.492H679.777V562.326H687.236V563.492ZM688.314 565.807H678.564V564.635H688.314V565.807ZM681.271 562.912H679.777V559.789H681.271V562.912ZM687.301 569.844H679.684V568.637H687.301V569.844ZM681.184 568.982H679.684V566.68H681.184V568.982ZM700.936 570.078H699.529V559.402H700.936V570.078ZM699.869 564.729H698.059V563.533H699.869V564.729ZM698.498 569.562H697.127V559.596H698.498V569.562ZM692.768 566.416C693.545 566.416 694.215 566.398 694.777 566.363C695.34 566.328 695.914 566.258 696.5 566.152L696.605 567.365C696.008 567.479 695.42 567.557 694.842 567.6C694.264 567.639 693.572 567.66 692.768 567.664H692.018V566.416H692.768ZM696.002 561.852H693.518V567.02H692.018V560.65H696.002V561.852ZM711.846 568.807H702.096V567.611H711.846V568.807ZM707.656 567.928H706.168V565.191H707.656V567.928ZM707.422 560.785C707.422 561.539 707.24 562.248 706.877 562.912C706.518 563.572 706 564.133 705.324 564.594C704.648 565.055 703.861 565.369 702.963 565.537L702.318 564.289C703.1 564.168 703.775 563.928 704.346 563.568C704.92 563.205 705.357 562.781 705.658 562.297C705.959 561.809 706.109 561.305 706.109 560.785V560.029H707.422V560.785ZM707.697 560.785C707.697 561.309 707.848 561.814 708.148 562.303C708.453 562.787 708.893 563.209 709.467 563.568C710.045 563.928 710.727 564.168 711.512 564.289L710.873 565.537C709.963 565.365 709.17 565.053 708.494 564.6C707.822 564.146 707.305 563.592 706.941 562.936C706.582 562.275 706.402 561.559 706.402 560.785V560.029H707.697V560.785ZM722.211 565.631H712.467V564.447H722.211V565.631ZM718.068 564.916H716.604V562.842H718.068V564.916ZM721.098 563.533H713.645V562.361H721.098V563.533ZM721.039 561.049H715.127V563.129H713.645V559.883H721.039V561.049ZM717.312 566.158C718.086 566.158 718.75 566.234 719.305 566.387C719.863 566.539 720.289 566.764 720.582 567.061C720.879 567.357 721.027 567.715 721.027 568.133C721.027 568.547 720.879 568.9 720.582 569.193C720.289 569.486 719.863 569.709 719.305 569.861C718.75 570.014 718.086 570.092 717.312 570.096C716.539 570.092 715.871 570.014 715.309 569.861C714.75 569.709 714.32 569.486 714.02 569.193C713.723 568.9 713.574 568.547 713.574 568.133C713.574 567.715 713.723 567.357 714.02 567.061C714.32 566.764 714.75 566.539 715.309 566.387C715.867 566.234 716.535 566.158 717.312 566.158ZM717.312 567.301C716.82 567.301 716.41 567.332 716.082 567.395C715.754 567.453 715.508 567.545 715.344 567.67C715.18 567.795 715.098 567.949 715.098 568.133C715.098 568.32 715.18 568.475 715.344 568.596C715.508 568.717 715.752 568.807 716.076 568.865C716.404 568.924 716.816 568.953 717.312 568.953C717.805 568.953 718.213 568.924 718.537 568.865C718.865 568.807 719.111 568.717 719.275 568.596C719.439 568.471 719.521 568.316 719.521 568.133C719.521 567.949 719.439 567.795 719.275 567.67C719.111 567.545 718.863 567.453 718.531 567.395C718.203 567.332 717.797 567.301 717.312 567.301ZM724.209 569.105C724.033 569.105 723.869 569.061 723.717 568.971C723.564 568.877 723.445 568.756 723.359 568.607C723.273 568.455 723.23 568.291 723.23 568.115C723.23 567.943 723.273 567.783 723.359 567.635C723.445 567.482 723.564 567.363 723.717 567.277C723.869 567.191 724.033 567.148 724.209 567.148C724.385 567.148 724.547 567.191 724.695 567.277C724.848 567.363 724.969 567.482 725.059 567.635C725.148 567.783 725.193 567.943 725.193 568.115C725.193 568.291 725.148 568.455 725.059 568.607C724.969 568.756 724.848 568.877 724.695 568.971C724.547 569.061 724.385 569.105 724.209 569.105Z" fill="black"/>
<rect x="464.5" y="608.5" width="510" height="23" rx="9.5" fill="black" stroke="#BABABA"/>
<path d="M499.322 492.264C500.221 492.264 501.021 492.524 501.725 493.045C502.434 493.566 502.991 494.305 503.395 495.262C503.805 496.219 504.01 497.332 504.01 498.602C504.01 499.878 503.805 500.994 503.395 501.951C502.991 502.908 502.434 503.647 501.725 504.168C501.021 504.682 500.221 504.939 499.322 504.939C498.417 504.939 497.607 504.682 496.891 504.168C496.181 503.647 495.624 502.908 495.221 501.951C494.824 500.994 494.625 499.878 494.625 498.602C494.625 497.332 494.824 496.219 495.221 495.262C495.624 494.305 496.181 493.566 496.891 493.045C497.607 492.524 498.417 492.264 499.322 492.264ZM499.322 494.52C498.867 494.513 498.463 494.669 498.111 494.988C497.766 495.307 497.499 495.773 497.311 496.385C497.122 496.997 497.027 497.736 497.027 498.602C497.027 499.467 497.122 500.206 497.311 500.818C497.499 501.43 497.77 501.896 498.121 502.215C498.473 502.527 498.873 502.684 499.322 502.684C499.785 502.684 500.188 502.527 500.533 502.215C500.878 501.896 501.142 501.43 501.324 500.818C501.513 500.206 501.607 499.467 501.607 498.602C501.607 497.729 501.513 496.987 501.324 496.375C501.142 495.763 500.878 495.301 500.533 494.988C500.188 494.669 499.785 494.513 499.322 494.52ZM508.551 508.797H506.051V491.004H508.551V508.797ZM511.188 499.803H508.004V497.723H511.188V499.803ZM526.695 508.846H524.166V491.004H526.695V508.846ZM517.037 492.264C517.929 492.264 518.73 492.524 519.439 493.045C520.156 493.566 520.712 494.305 521.109 495.262C521.513 496.219 521.715 497.332 521.715 498.602C521.715 499.878 521.513 500.994 521.109 501.951C520.712 502.908 520.156 503.647 519.439 504.168C518.73 504.682 517.929 504.939 517.037 504.939C516.132 504.939 515.322 504.682 514.605 504.168C513.896 503.647 513.339 502.908 512.936 501.951C512.532 500.994 512.33 499.878 512.33 498.602C512.33 497.332 512.532 496.219 512.936 495.262C513.339 494.305 513.896 493.566 514.605 493.045C515.322 492.524 516.132 492.264 517.037 492.264ZM517.037 494.52C516.581 494.513 516.178 494.669 515.826 494.988C515.481 495.301 515.214 495.766 515.025 496.385C514.843 496.997 514.752 497.736 514.752 498.602C514.752 499.467 514.843 500.206 515.025 500.818C515.214 501.43 515.481 501.896 515.826 502.215C516.178 502.527 516.581 502.684 517.037 502.684C517.486 502.684 517.883 502.527 518.229 502.215C518.574 501.896 518.84 501.43 519.029 500.818C519.218 500.206 519.312 499.467 519.312 498.602C519.312 497.736 519.218 496.997 519.029 496.385C518.84 495.766 518.574 495.301 518.229 494.988C517.89 494.669 517.493 494.513 517.037 494.52ZM543.98 508.846H541.451V491.004H543.98V508.846ZM531.715 502.488C533.798 502.488 535.423 502.459 536.588 502.4C537.753 502.335 538.909 502.202 540.055 502L540.279 504.041C539.127 504.262 537.936 504.412 536.705 504.49C535.475 504.562 533.811 504.601 531.715 504.607H530.182V502.488H531.715ZM538.814 494.607H532.672V503.309H530.182V492.576H538.814V494.607ZM551.285 492.264C552.171 492.264 552.962 492.524 553.658 493.045C554.355 493.566 554.898 494.305 555.289 495.262C555.686 496.219 555.885 497.332 555.885 498.602C555.885 499.878 555.686 500.994 555.289 501.951C554.898 502.908 554.355 503.647 553.658 504.168C552.962 504.682 552.171 504.939 551.285 504.939C550.393 504.939 549.596 504.682 548.893 504.168C548.196 503.654 547.649 502.918 547.252 501.961C546.855 500.997 546.656 499.878 546.656 498.602C546.656 497.332 546.855 496.219 547.252 495.262C547.649 494.305 548.196 493.566 548.893 493.045C549.596 492.524 550.393 492.264 551.285 492.264ZM551.285 494.52C550.842 494.513 550.449 494.669 550.104 494.988C549.765 495.307 549.505 495.773 549.322 496.385C549.146 496.997 549.059 497.736 549.059 498.602C549.059 499.467 549.146 500.206 549.322 500.818C549.505 501.43 549.765 501.896 550.104 502.215C550.449 502.527 550.842 502.684 551.285 502.684C551.734 502.684 552.128 502.527 552.467 502.215C552.805 501.896 553.066 501.43 553.248 500.818C553.43 500.206 553.521 499.467 553.521 498.602C553.521 497.729 553.427 496.987 553.238 496.375C553.056 495.763 552.799 495.301 552.467 494.988C552.135 494.669 551.741 494.513 551.285 494.52ZM561.383 508.846H558.912V491.004H561.383V508.846ZM559.977 499.441H555.143V497.439H559.977V499.441Z" fill="black"/>
<path d="M687.648 615.814C687.648 616.588 687.467 617.312 687.104 617.988C686.74 618.664 686.223 619.242 685.551 619.723C684.883 620.199 684.1 620.527 683.201 620.707L682.562 619.465C683.328 619.32 683.996 619.061 684.566 618.686C685.141 618.311 685.578 617.871 685.879 617.367C686.184 616.863 686.336 616.346 686.336 615.814V615.053H687.648V615.814ZM687.924 615.814C687.924 616.35 688.074 616.871 688.375 617.379C688.68 617.887 689.119 618.328 689.693 618.703C690.271 619.074 690.947 619.328 691.721 619.465L691.064 620.707C690.174 620.527 689.393 620.201 688.721 619.729C688.053 619.256 687.539 618.682 687.18 618.006C686.82 617.33 686.641 616.6 686.641 615.814V615.053H687.924V615.814ZM692.072 623.771H682.322V622.547H692.072V623.771ZM701.383 620.889H693.836V619.705H701.383V620.889ZM702.443 623.889H692.693V622.693H702.443V623.889ZM698.307 623.209H696.812V620.291H698.307V623.209ZM701.301 616.348H695.359V620.168H693.836V615.146H701.301V616.348ZM701.049 618.592H694.914V617.42H701.049V618.592ZM712 625.107H710.506V614.402H712V625.107ZM704.588 621.375C705.588 621.379 706.49 621.355 707.295 621.305C708.1 621.25 708.916 621.156 709.744 621.023L709.879 622.23C709.059 622.375 708.24 622.475 707.424 622.529C706.611 622.58 705.666 622.605 704.588 622.605H703.633V621.375H704.588ZM708.689 619.412H705.174V621.844H703.633V618.24H707.166V616.512H703.621V615.305H708.689V619.412ZM719.336 616.312C719.336 616.93 719.248 617.523 719.072 618.094C718.9 618.66 718.629 619.166 718.258 619.611C717.887 620.057 717.424 620.395 716.869 620.625L716.061 619.471C716.541 619.264 716.938 618.99 717.25 618.65C717.562 618.311 717.793 617.941 717.941 617.543C718.094 617.141 718.17 616.73 718.17 616.312V615.059H719.336V616.312ZM719.617 616.312C719.617 616.711 719.689 617.092 719.834 617.455C719.979 617.818 720.201 618.146 720.502 618.439C720.803 618.732 721.178 618.967 721.627 619.143L720.836 620.285C720.297 620.078 719.848 619.775 719.488 619.377C719.133 618.975 718.869 618.512 718.697 617.988C718.529 617.465 718.445 616.906 718.445 616.312V615.059H719.617V616.312ZM725.371 620.947H723.947V614.426H725.371V620.947ZM724.34 618.24H722.629V617.027H724.34V618.24ZM723.057 620.613H721.674V614.607H723.057V620.613ZM721.727 621.094C722.477 621.094 723.129 621.172 723.684 621.328C724.242 621.484 724.672 621.713 724.973 622.014C725.273 622.311 725.424 622.666 725.424 623.08C725.424 623.49 725.273 623.844 724.973 624.141C724.672 624.441 724.242 624.672 723.684 624.832C723.129 624.996 722.477 625.078 721.727 625.078C720.98 625.078 720.328 624.996 719.77 624.832C719.215 624.672 718.787 624.441 718.486 624.141C718.186 623.844 718.035 623.49 718.035 623.08C718.035 622.666 718.186 622.311 718.486 622.014C718.787 621.713 719.215 621.484 719.77 621.328C720.324 621.172 720.977 621.094 721.727 621.094ZM721.727 622.207C721.262 622.207 720.865 622.24 720.537 622.307C720.209 622.369 719.959 622.467 719.787 622.6C719.619 622.729 719.535 622.889 719.535 623.08C719.535 623.271 719.619 623.432 719.787 623.561C719.959 623.689 720.207 623.787 720.531 623.854C720.859 623.92 721.258 623.953 721.727 623.953C722.195 623.953 722.592 623.92 722.916 623.854C723.244 623.787 723.494 623.689 723.666 623.561C723.838 623.432 723.924 623.271 723.924 623.08C723.924 622.889 723.838 622.729 723.666 622.6C723.494 622.467 723.242 622.369 722.91 622.307C722.582 622.24 722.188 622.207 721.727 622.207ZM730.322 615.938C730.322 616.668 730.209 617.346 729.982 617.971C729.76 618.592 729.422 619.133 728.969 619.594C728.516 620.055 727.951 620.402 727.275 620.637L726.479 619.436C727.068 619.248 727.559 618.977 727.949 618.621C728.344 618.262 728.635 617.854 728.822 617.396C729.01 616.939 729.104 616.453 729.104 615.938V614.971H730.322V615.938ZM730.609 615.861C730.609 616.354 730.695 616.816 730.867 617.25C731.039 617.68 731.309 618.061 731.676 618.393C732.043 618.721 732.502 618.971 733.053 619.143L732.25 620.309C731.613 620.086 731.082 619.76 730.656 619.33C730.234 618.9 729.92 618.393 729.713 617.807C729.51 617.221 729.408 616.572 729.408 615.861V614.971H730.609V615.861ZM735.566 620.66H734.078V614.402H735.566V620.66ZM731.922 620.941C732.684 620.941 733.34 621.021 733.891 621.182C734.441 621.342 734.863 621.578 735.156 621.891C735.453 622.203 735.602 622.578 735.602 623.016C735.602 623.445 735.453 623.816 735.156 624.129C734.863 624.441 734.441 624.678 733.891 624.838C733.34 624.998 732.684 625.078 731.922 625.078C731.168 625.078 730.516 624.998 729.965 624.838C729.418 624.678 728.996 624.441 728.699 624.129C728.406 623.816 728.26 623.445 728.26 623.016C728.26 622.578 728.406 622.203 728.699 621.891C728.996 621.578 729.418 621.342 729.965 621.182C730.516 621.021 731.168 620.941 731.922 620.941ZM731.922 622.096C731.453 622.096 731.057 622.129 730.732 622.195C730.408 622.262 730.162 622.363 729.994 622.5C729.826 622.637 729.742 622.809 729.742 623.016C729.742 623.207 729.826 623.371 729.994 623.508C730.162 623.641 730.408 623.742 730.732 623.812C731.057 623.883 731.453 623.918 731.922 623.918C732.402 623.918 732.805 623.883 733.129 623.812C733.453 623.742 733.697 623.641 733.861 623.508C734.025 623.371 734.107 623.207 734.107 623.016C734.107 622.809 734.025 622.637 733.861 622.5C733.697 622.363 733.453 622.262 733.129 622.195C732.805 622.129 732.402 622.096 731.922 622.096ZM734.283 617.59H732.074V616.371H734.283V617.59ZM745.363 625.078H743.887V614.402H745.363V625.078ZM746.945 619.816H745.035V618.592H746.945V619.816ZM743.16 617.203H736.896V616.002H743.16V617.203ZM740.055 617.795C740.574 617.795 741.041 617.904 741.455 618.123C741.869 618.338 742.193 618.639 742.428 619.025C742.666 619.412 742.785 619.85 742.785 620.338C742.785 620.826 742.666 621.264 742.428 621.65C742.193 622.037 741.869 622.34 741.455 622.559C741.041 622.773 740.574 622.881 740.055 622.881C739.535 622.881 739.068 622.773 738.654 622.559C738.24 622.34 737.916 622.037 737.682 621.65C737.447 621.264 737.33 620.826 737.33 620.338C737.33 619.85 737.447 619.412 737.682 619.025C737.916 618.639 738.24 618.338 738.654 618.123C739.068 617.904 739.535 617.795 740.055 617.795ZM740.055 619.014C739.809 619.014 739.586 619.068 739.387 619.178C739.191 619.283 739.037 619.438 738.924 619.641C738.814 619.84 738.76 620.072 738.76 620.338C738.76 620.607 738.814 620.842 738.924 621.041C739.037 621.24 739.191 621.395 739.387 621.504C739.586 621.609 739.809 621.662 740.055 621.662C740.309 621.662 740.533 621.609 740.729 621.504C740.924 621.395 741.074 621.24 741.18 621.041C741.289 620.842 741.344 620.607 741.344 620.338C741.344 620.072 741.289 619.84 741.18 619.641C741.074 619.438 740.924 619.283 740.729 619.178C740.533 619.068 740.309 619.014 740.055 619.014ZM740.799 616.459H739.311V614.572H740.799V616.459ZM756.285 625.078H754.768V614.402H756.285V625.078ZM753.092 615.527C753.092 616.672 752.938 617.711 752.629 618.645C752.324 619.574 751.807 620.43 751.076 621.211C750.346 621.988 749.367 622.668 748.141 623.25L747.355 622.055C748.383 621.57 749.207 621.025 749.828 620.42C750.449 619.814 750.9 619.135 751.182 618.381C751.463 617.627 751.604 616.764 751.604 615.791V615.527H753.092ZM752.289 616.705H747.924V615.527H752.289V616.705Z" fill="white"/>
<path d="M498.859 383.527C500.63 383.527 502.212 384.048 503.605 385.09C504.999 386.132 506.086 387.609 506.867 389.523C507.661 391.438 508.059 393.664 508.059 396.203C508.059 398.755 507.661 400.988 506.867 402.902C506.086 404.816 504.999 406.294 503.605 407.336C502.212 408.365 500.63 408.879 498.859 408.879C497.076 408.879 495.48 408.365 494.074 407.336C492.681 406.307 491.587 404.836 490.793 402.922C489.999 400.995 489.602 398.755 489.602 396.203C489.602 393.664 489.999 391.438 490.793 389.523C491.587 387.609 492.681 386.132 494.074 385.09C495.48 384.048 497.076 383.527 498.859 383.527ZM498.859 388.039C497.974 388.026 497.186 388.339 496.496 388.977C495.819 389.615 495.298 390.546 494.934 391.77C494.582 392.993 494.406 394.471 494.406 396.203C494.406 397.935 494.582 399.413 494.934 400.637C495.298 401.861 495.819 402.792 496.496 403.43C497.186 404.055 497.974 404.367 498.859 404.367C499.758 404.367 500.546 404.055 501.223 403.43C501.9 402.792 502.421 401.861 502.785 400.637C503.15 399.413 503.332 397.935 503.332 396.203C503.332 394.458 503.143 392.974 502.766 391.75C502.401 390.526 501.887 389.602 501.223 388.977C500.559 388.339 499.771 388.026 498.859 388.039ZM519.055 416.691H514.113V381.008H519.055V416.691ZM516.242 397.883H506.574V393.879H516.242V397.883ZM554.855 415.988H529.172V411.965H554.855V415.988ZM534.172 414.406H529.172V404.602H534.172V414.406ZM553.898 406.77H549.016V381.086H553.898V406.77ZM553.215 394.445H544.113V390.441H553.215V394.445ZM525.93 397.824C527.596 397.811 529.003 397.759 530.148 397.668C531.307 397.577 532.505 397.408 533.742 397.16L534.113 401.184C532.863 401.444 531.691 401.607 530.598 401.672C529.517 401.737 527.961 401.77 525.93 401.77H524.23V397.824H525.93ZM533.527 387.727H529.074V398.625H524.23V383.703H533.527V387.727ZM537.18 397.824C539.484 397.811 541.249 397.759 542.473 397.668C543.71 397.577 544.901 397.388 546.047 397.102L546.496 401.125C545.285 401.385 544.061 401.561 542.824 401.652C541.587 401.73 539.706 401.77 537.18 401.77H535.227V397.824H537.18ZM545.227 387.727H540.188V398.547H535.227V383.703H545.227V387.727ZM593.957 389.68H583.371V385.734H593.957V389.68ZM593.957 397.609H583.371V393.645H593.957V397.609ZM577.375 382.941C579.133 382.941 580.728 383.312 582.16 384.055C583.592 384.797 584.719 385.832 585.539 387.16C586.372 388.488 586.789 389.986 586.789 391.652C586.789 393.306 586.372 394.797 585.539 396.125C584.719 397.453 583.592 398.488 582.16 399.23C580.728 399.973 579.133 400.344 577.375 400.344C575.591 400.344 573.977 399.973 572.531 399.23C571.099 398.488 569.966 397.453 569.133 396.125C568.312 394.797 567.902 393.306 567.902 391.652C567.902 389.986 568.312 388.488 569.133 387.16C569.966 385.832 571.099 384.797 572.531 384.055C573.977 383.312 575.591 382.941 577.375 382.941ZM577.375 387.219C576.451 387.206 575.63 387.375 574.914 387.727C574.198 388.078 573.638 388.592 573.234 389.27C572.831 389.934 572.629 390.728 572.629 391.652C572.629 392.564 572.831 393.358 573.234 394.035C573.638 394.699 574.198 395.22 574.914 395.598C575.63 395.962 576.451 396.145 577.375 396.145C578.286 396.145 579.087 395.962 579.777 395.598C580.48 395.22 581.027 394.699 581.418 394.035C581.822 393.358 582.023 392.564 582.023 391.652C582.023 390.728 581.822 389.934 581.418 389.27C581.027 388.592 580.48 388.078 579.777 387.727C579.087 387.375 578.286 387.206 577.375 387.219ZM597.414 401.867H592.453V381.008H597.414V401.867ZM585.266 402.609C587.766 402.609 589.934 402.883 591.77 403.43C593.618 403.977 595.038 404.777 596.027 405.832C597.03 406.874 597.531 408.13 597.531 409.602C597.531 411.06 597.03 412.316 596.027 413.371C595.038 414.426 593.618 415.227 591.77 415.773C589.934 416.32 587.766 416.594 585.266 416.594C582.779 416.594 580.617 416.32 578.781 415.773C576.945 415.227 575.533 414.426 574.543 413.371C573.553 412.316 573.059 411.06 573.059 409.602C573.059 408.13 573.553 406.874 574.543 405.832C575.533 404.777 576.939 403.977 578.762 403.43C580.598 402.883 582.766 402.609 585.266 402.609ZM585.266 406.398C583.703 406.398 582.368 406.516 581.262 406.75C580.168 406.984 579.341 407.342 578.781 407.824C578.221 408.293 577.941 408.885 577.941 409.602C577.941 410.279 578.221 410.852 578.781 411.32C579.341 411.776 580.168 412.128 581.262 412.375C582.368 412.609 583.703 412.727 585.266 412.727C586.88 412.727 588.234 412.609 589.328 412.375C590.422 412.128 591.249 411.776 591.809 411.32C592.368 410.852 592.648 410.279 592.648 409.602C592.648 408.872 592.368 408.273 591.809 407.805C591.249 407.336 590.422 406.984 589.328 406.75C588.234 406.516 586.88 406.398 585.266 406.398ZM614.035 386.145C614.035 388.553 613.671 390.793 612.941 392.863C612.225 394.934 611.132 396.737 609.66 398.273C608.189 399.797 606.366 400.936 604.191 401.691L601.516 397.785C603.417 397.134 604.999 396.216 606.262 395.031C607.525 393.833 608.456 392.473 609.055 390.949C609.667 389.426 609.973 387.824 609.973 386.145V382.922H614.035V386.145ZM614.973 386.633C614.973 388.117 615.266 389.53 615.852 390.871C616.451 392.199 617.355 393.384 618.566 394.426C619.79 395.454 621.307 396.255 623.117 396.828L620.461 400.695C618.391 399.992 616.639 398.951 615.207 397.57C613.775 396.19 612.707 394.569 612.004 392.707C611.301 390.832 610.949 388.807 610.949 386.633V382.922H614.973V386.633ZM630.227 402.121H625.246V381.008H630.227V402.121ZM635.031 393.508H628.82V389.348H635.031V393.508ZM618.566 402.844C621.014 402.844 623.137 403.117 624.934 403.664C626.743 404.198 628.13 404.979 629.094 406.008C630.07 407.036 630.559 408.267 630.559 409.699C630.559 411.145 630.07 412.382 629.094 413.41C628.13 414.452 626.75 415.24 624.953 415.773C623.156 416.32 621.027 416.594 618.566 416.594C616.092 416.594 613.938 416.32 612.102 415.773C610.266 415.24 608.853 414.452 607.863 413.41C606.874 412.382 606.379 411.145 606.379 409.699C606.379 408.267 606.874 407.036 607.863 406.008C608.853 404.979 610.266 404.198 612.102 403.664C613.938 403.117 616.092 402.844 618.566 402.844ZM618.566 406.75C617.03 406.75 615.721 406.861 614.641 407.082C613.573 407.29 612.766 407.622 612.219 408.078C611.672 408.521 611.398 409.061 611.398 409.699C611.398 410.363 611.672 410.917 612.219 411.359C612.766 411.802 613.566 412.134 614.621 412.355C615.689 412.564 617.004 412.674 618.566 412.688C620.142 412.674 621.451 412.564 622.492 412.355C623.534 412.134 624.322 411.802 624.855 411.359C625.389 410.917 625.656 410.363 625.656 409.699C625.656 409.048 625.383 408.501 624.836 408.059C624.302 407.616 623.508 407.29 622.453 407.082C621.398 406.861 620.103 406.75 618.566 406.75ZM652.805 381.555C655.539 381.555 657.87 381.789 659.797 382.258C661.724 382.714 663.189 383.397 664.191 384.309C665.207 385.207 665.715 386.301 665.715 387.59C665.715 388.892 665.207 390.005 664.191 390.93C663.189 391.841 661.724 392.531 659.797 393C657.87 393.469 655.539 393.703 652.805 393.703C650.07 393.703 647.733 393.469 645.793 393C643.866 392.531 642.388 391.841 641.359 390.93C640.344 390.005 639.836 388.892 639.836 387.59C639.836 386.301 640.344 385.207 641.359 384.309C642.388 383.397 643.866 382.714 645.793 382.258C647.733 381.789 650.07 381.555 652.805 381.555ZM652.805 385.188C651.073 385.188 649.634 385.279 648.488 385.461C647.342 385.63 646.483 385.897 645.91 386.262C645.35 386.626 645.07 387.069 645.07 387.59C645.07 388.176 645.344 388.651 645.891 389.016C646.451 389.367 647.29 389.628 648.41 389.797C649.53 389.966 650.995 390.051 652.805 390.051C654.641 390.051 656.118 389.966 657.238 389.797C658.358 389.628 659.191 389.367 659.738 389.016C660.298 388.651 660.578 388.176 660.578 387.59C660.578 387.069 660.292 386.633 659.719 386.281C659.159 385.917 658.306 385.643 657.16 385.461C656.014 385.279 654.562 385.188 652.805 385.188ZM669.035 399.348H636.613V395.402H669.035V399.348ZM665.07 410.461H645.266V413.664H640.363V406.984H660.148V405.031H640.344V401.379H665.07V410.461ZM666.008 416.34H640.363V412.609H666.008V416.34ZM698.547 401.066H681.477V383.977H698.547V401.066ZM686.418 397.141H693.645V387.961H686.418V397.141ZM708.625 407.004H703.645V381.066H708.625V407.004ZM713.43 395.402H707.18V391.301H713.43V395.402ZM709.895 415.988H685.559V411.965H709.895V415.988ZM690.539 413.957H685.559V404.426H690.539V413.957ZM747.492 398.84H715.012V394.934H747.492V398.84ZM743.605 392.961H719.035V389.035H743.605V392.961ZM743.352 385.715H724.016V392.375H719.035V381.77H743.352V385.715ZM743.469 410.207H723.664V413.41H718.762V406.672H738.547V404.68H718.742V400.93H743.469V410.207ZM744.406 416.301H718.762V412.434H744.406V416.301ZM775.676 388.059H752.902V384.113H775.676V388.059ZM782.004 412.238H749.582V408.195H782.004V412.238ZM766.125 410.266H761.184V395.969H766.125V410.266ZM778.84 387.492C778.84 389.576 778.814 391.353 778.762 392.824C778.71 394.283 778.586 396.014 778.391 398.02C778.195 400.012 777.883 402.173 777.453 404.504L772.395 403.977C772.85 401.802 773.182 399.751 773.391 397.824C773.599 395.884 773.723 394.172 773.762 392.688C773.814 391.19 773.84 389.458 773.84 387.492V384.113H778.84V387.492ZM823.137 400.773H818.156V381.086H823.137V400.773ZM805.988 385.734C805.988 387.974 805.598 390.064 804.816 392.004C804.035 393.944 802.876 395.637 801.34 397.082C799.803 398.527 797.915 399.589 795.676 400.266L793.254 396.34C795.168 395.754 796.77 394.914 798.059 393.82C799.348 392.727 800.298 391.49 800.91 390.109C801.535 388.716 801.848 387.258 801.848 385.734V382.277H805.988V385.734ZM807.023 385.734C807.023 387.18 807.323 388.566 807.922 389.895C808.521 391.21 809.445 392.382 810.695 393.41C811.945 394.426 813.514 395.194 815.402 395.715L813 399.68C810.786 399.016 808.918 398 807.395 396.633C805.884 395.266 804.745 393.658 803.977 391.809C803.221 389.947 802.844 387.922 802.844 385.734V382.277H807.023V385.734ZM823.352 406.301H798.957V402.375H823.352V406.301ZM823.664 416.203H798.645V412.199H823.664V416.203ZM808.156 414.621H803.215V403.801H808.156V414.621ZM819.113 414.621H814.172V403.801H819.113V414.621ZM860.402 403.195H827.98V399.23H860.402V403.195ZM856.711 415.988H831.887V411.965H856.711V415.988ZM836.867 413.254H831.887V405.578H836.867V413.254ZM844.172 382.141C846.75 382.128 849.016 382.414 850.969 383C852.922 383.573 854.426 384.413 855.48 385.52C856.548 386.626 857.082 387.922 857.082 389.406C857.082 390.904 856.548 392.206 855.48 393.312C854.426 394.406 852.922 395.253 850.969 395.852C849.016 396.451 846.75 396.757 844.172 396.77C841.568 396.757 839.289 396.451 837.336 395.852C835.383 395.253 833.872 394.406 832.805 393.312C831.737 392.206 831.203 390.904 831.203 389.406C831.203 387.922 831.737 386.626 832.805 385.52C833.872 384.413 835.383 383.573 837.336 383C839.289 382.414 841.568 382.128 844.172 382.141ZM844.172 386.047C842.531 386.047 841.125 386.177 839.953 386.438C838.794 386.698 837.909 387.082 837.297 387.59C836.685 388.085 836.379 388.69 836.379 389.406C836.379 390.109 836.678 390.715 837.277 391.223C837.889 391.73 838.775 392.108 839.934 392.355C841.105 392.59 842.518 392.707 844.172 392.707C845.812 392.707 847.212 392.59 848.371 392.355C849.53 392.108 850.415 391.73 851.027 391.223C851.639 390.715 851.945 390.109 851.945 389.406C851.945 388.69 851.639 388.085 851.027 387.59C850.415 387.082 849.53 386.698 848.371 386.438C847.212 386.177 845.812 386.047 844.172 386.047ZM890.578 416.535H885.578V381.008H890.578V416.535ZM895.598 398.781H889.289V394.68H895.598V398.781ZM881.086 384.68C881.086 388.391 880.559 391.815 879.504 394.953C878.449 398.078 876.73 400.956 874.348 403.586C871.965 406.203 868.84 408.469 864.973 410.383L862.16 406.574C865.35 404.96 867.974 403.137 870.031 401.105C872.102 399.074 873.645 396.783 874.66 394.23C875.689 391.678 876.203 388.794 876.203 385.578V384.68H881.086ZM878.703 388.762H864.152V384.68H878.703V388.762ZM909.309 409.113H904.367V399.133H909.309V409.113ZM922.395 409.113H917.375V399.133H922.395V409.113ZM929.621 412.434H897.121V408.352H929.621V412.434ZM913.312 382.766C915.878 382.766 918.169 383.163 920.188 383.957C922.219 384.751 923.807 385.871 924.953 387.316C926.112 388.762 926.691 390.422 926.691 392.297C926.691 394.185 926.118 395.852 924.973 397.297C923.827 398.729 922.238 399.842 920.207 400.637C918.189 401.418 915.891 401.815 913.312 401.828C910.747 401.815 908.449 401.418 906.418 400.637C904.4 399.842 902.818 398.729 901.672 397.297C900.526 395.852 899.953 394.185 899.953 392.297C899.953 390.422 900.526 388.762 901.672 387.316C902.818 385.871 904.406 384.751 906.438 383.957C908.469 383.163 910.76 382.766 913.312 382.766ZM913.312 386.711C911.62 386.698 910.142 386.913 908.879 387.355C907.616 387.798 906.633 388.443 905.93 389.289C905.227 390.122 904.875 391.125 904.875 392.297C904.875 393.456 905.227 394.465 905.93 395.324C906.633 396.171 907.616 396.828 908.879 397.297C910.155 397.753 911.633 397.98 913.312 397.98C914.979 397.98 916.451 397.753 917.727 397.297C919.003 396.828 919.992 396.171 920.695 395.324C921.411 394.465 921.77 393.456 921.77 392.297C921.77 391.125 921.418 390.122 920.715 389.289C920.012 388.456 919.022 387.818 917.746 387.375C916.483 386.919 915.005 386.698 913.312 386.711ZM937.883 404.094C937.896 402.518 938.039 401.249 938.312 400.285C938.586 399.309 938.977 398.527 939.484 397.941C939.992 397.355 940.682 396.796 941.555 396.262C942.531 395.663 943.273 395.038 943.781 394.387C944.289 393.723 944.543 392.98 944.543 392.16C944.543 391.522 944.393 390.962 944.094 390.48C943.807 389.986 943.397 389.608 942.863 389.348C942.342 389.087 941.763 388.957 941.125 388.957C940.513 388.957 939.934 389.094 939.387 389.367C938.853 389.628 938.417 390.025 938.078 390.559C937.74 391.092 937.557 391.73 937.531 392.473H931.984C932.023 390.702 932.453 389.204 933.273 387.98C934.094 386.757 935.181 385.845 936.535 385.246C937.902 384.634 939.439 384.328 941.145 384.328C942.98 384.328 944.602 384.634 946.008 385.246C947.414 385.845 948.508 386.724 949.289 387.883C950.083 389.029 950.48 390.389 950.48 391.965C950.48 393.514 950.109 394.829 949.367 395.91C948.638 396.991 947.59 397.948 946.223 398.781C945.467 399.224 944.862 399.68 944.406 400.148C943.964 400.617 943.625 401.164 943.391 401.789C943.156 402.414 943.039 403.182 943.039 404.094V404.543H937.883V404.094ZM940.578 413.352C939.992 413.352 939.445 413.202 938.938 412.902C938.43 412.59 938.033 412.186 937.746 411.691C937.46 411.184 937.316 410.637 937.316 410.051C937.316 409.478 937.46 408.944 937.746 408.449C938.033 407.941 938.43 407.544 938.938 407.258C939.445 406.971 939.992 406.828 940.578 406.828C941.151 406.828 941.685 406.971 942.18 407.258C942.688 407.544 943.091 407.941 943.391 408.449C943.703 408.944 943.859 409.478 943.859 410.051C943.859 410.637 943.703 411.184 943.391 411.691C943.091 412.186 942.688 412.59 942.18 412.902C941.685 413.202 941.151 413.352 940.578 413.352Z" fill="black"/>
<path d="M476 490C474.143 490 472.363 490.737 471.05 492.05C469.737 493.363 469 495.143 469 497C469 499.38 470.19 501.47 472 502.74V505C472 505.265 472.105 505.52 472.293 505.707C472.48 505.895 472.735 506 473 506H479C479.265 506 479.52 505.895 479.707 505.707C479.895 505.52 480 505.265 480 505V502.74C481.81 501.47 483 499.38 483 497C483 495.143 482.263 493.363 480.95 492.05C479.637 490.737 477.857 490 476 490ZM473 509C473 509.265 473.105 509.52 473.293 509.707C473.48 509.895 473.735 510 474 510H478C478.265 510 478.52 509.895 478.707 509.707C478.895 509.52 479 509.265 479 509V508H473V509Z" fill="black"/>
</svg>
